<?xml version="1.0" encoding="UTF-8"?>
<svg id="Layer_1" data-name="Layer 1" xmlns="http://www.w3.org/2000/svg" viewBox="0 0 538.88 538.88">
  <defs>
    <style>
      .cls-1 {
        fill: #9381ff;
      }

      .cls-1, .cls-2 {
        stroke-width: 0px;
      }

      .cls-2 {
        fill: #fff;
      }
    </style>
  </defs>
  <circle class="cls-2" cx="269.44" cy="269.44" r="269.44"/>
  <path class="cls-1" d="M322.4,71.66c-46.81-13.39-89.79,2.56-121.92,14.49-11.91,4.42-41.41,16.2-62.87,30.47-22.66,15.06-32.05,22.17-41.71,38.78-1.64,2.82-2.89,4.87-4.69,8.55-1.54,3.13-4.1,9.02-5.49,13.91-29.87,105.65,93.12,248.39,142.76,301.99,0,0,0,0,0,0,4.85,6.46,13.27,8.97,20.44,6.27,3.28-1.23,6.02-3.45,7.98-6.25,3.66-5.23,4.05-12.09,1.33-17.87l-120.37-255.67c-1.93-4.1-2.33-8.77-1.05-13.12,2.26-7.67,8.1-17.25,23.12-10.56,4.05,1.8,7.3,5.04,9.19,9.05l25.65,54.48s2.37,5.04,10.34,6.19c3.52.5,7.11-.1,10.33-1.62l166.35-78.32c2.75-1.29,5.15-3.22,6.96-5.66,1.15-1.54,2.28-3.39,2.93-5.36,1.38-4.15.15-8.04-.38-10.94-7.36-40.08-33.91-61.9-33.92-61.91,0,0,0,0,0,0-10.82-9.43-26.26-14.41-34.98-16.91Z"/>
  <path class="cls-1" d="M215.87,292.53l74.73,158.72c3.56,7.56,12.95,10.62,20.98,6.85l92.59-43.59c12.6-5.93,24.06-14.1,33.49-24.35,29.03-31.54,37.8-77.02,19.53-115.09-18.08-37.67-58.44-59.32-100.83-56.95-13.8.77-27.29,4.4-39.8,10.28l-92.6,43.6c-8.03,3.78-11.65,12.97-8.09,20.53Z"/>
</svg>