<?xml version="1.0" encoding="UTF-8"?>
<svg xmlns="http://www.w3.org/2000/svg" viewBox="0 0 1277.64 395.27">
  <defs>
    <style>
      .cls-1 {
        fill: #9381ff;
      }

      .cls-1, .cls-2, .cls-3 {
        stroke-width: 0px;
      }

      .cls-2 {
        fill: #000;
      }

      .cls-3 {
        fill: #fff;
      }
    </style>
  </defs>
  <g id="Layer_2" data-name="Layer 2">
    <circle class="cls-1" cx="197.64" cy="197.64" r="197.64"/>
  </g>
  <g id="Layer_1" data-name="Layer 1">
    <path class="cls-2" d="M236.48,52.56c-34.33-9.82-65.86,1.88-89.43,10.63-8.73,3.24-30.37,11.89-46.11,22.35-16.62,11.05-23.51,16.26-30.59,28.45-1.2,2.07-2.12,3.57-3.44,6.27-1.13,2.3-3.01,6.62-4.03,10.21-21.91,77.5,68.3,182.19,104.71,221.51,0,0,0,0,0,0,3.56,4.74,9.73,6.58,14.99,4.6,2.4-.9,4.41-2.53,5.85-4.58,2.69-3.84,2.97-8.87.98-13.11l-88.29-187.53c-1.42-3.01-1.71-6.44-.77-9.63,1.66-5.63,5.94-12.65,16.96-7.75,2.97,1.32,5.36,3.7,6.74,6.64l18.81,39.96s1.74,3.7,7.59,4.54c2.58.37,5.22-.07,7.58-1.19l122.02-57.45c2.02-.95,3.78-2.36,5.11-4.15.84-1.13,1.67-2.49,2.15-3.93,1.01-3.05.11-5.9-.28-8.03-5.4-29.4-24.87-45.41-24.88-45.41,0,0,0,0,0,0-7.94-6.92-19.26-10.57-25.66-12.4Z"/>
    <path class="cls-2" d="M158.34,214.57l54.81,116.42c2.61,5.54,9.5,7.79,15.39,5.02l67.91-31.97c9.24-4.35,17.65-10.34,24.57-17.86,21.29-23.13,27.72-56.5,14.32-84.42-13.26-27.63-42.86-43.51-73.96-41.77-10.12.57-20.02,3.22-29.19,7.54l-67.93,31.98c-5.89,2.77-8.54,9.51-5.93,15.06Z"/>
    <g>
      <path class="cls-3" d="M460.71,305.91V84.94h110.82c39.11,0,82,14.75,81.32,64.16-.34,29.16-19.9,45.63-56.96,46.32v1.72c42.2,1.72,67.94,10.64,67.94,51.12,0,48.04-45.29,57.64-86.12,57.64h-117ZM513.21,180.33h56.96c17.16,0,32.25-1.03,32.25-29.16,0-20.93-16.81-26.08-33.62-26.08l-55.58.34v54.9ZM513.21,265.76h63.13c18.53,0,35-2.06,35-25.39,0-18.18-16.13-27.11-35-27.11h-63.13v52.5Z"/>
      <path class="cls-3" d="M788.38,306.25v-38.43c-9.26,23.33-27.11,40.14-53.53,40.49-48.04.69-68.96-32.25-68.96-76.17v-97.44h50.78v94.01c0,21.62,6.52,38.08,31.91,38.08s38.08-14.07,38.08-38.77v-93.33h51.12l.34,171.21-49.75.34Z"/>
      <path class="cls-3" d="M850.48,305.91v-171.55h50.09v47.01c11.32-31.22,38.43-47.35,60.73-48.04,59.7-1.72,62.45,40.83,62.45,75.48v97.1h-51.12v-94.01c0-23.67-9.26-37.06-31.57-37.06-26.76,0-39.46,16.81-39.46,42.89v88.18h-51.12Z"/>
      <path class="cls-3" d="M1162.7,305.91v-33.28c-8.92,22.64-38.43,35-54.55,35-51.47,0-82.69-34.65-82.69-87.15s31.22-87.15,82.69-87.15c15.78,0,43.58,9.26,53.53,33.62V61.27h51.12v244.64h-50.09ZM1162.01,220.47c0-25.39-15.78-46.32-42.54-46.32s-42.55,20.93-42.55,46.32,16.13,45.98,42.55,45.98,42.54-20.93,42.54-45.98Z"/>
      <path class="cls-3" d="M1226.51,305.91V60.24h51.12v245.67h-51.12Z"/>
    </g>
  </g>
</svg>